<?xml version="1.0" encoding="UTF-8"?>
<svg id="Layer_2" data-name="Layer 2" xmlns="http://www.w3.org/2000/svg" viewBox="0 0 55.55 39.53">
  <defs>
    <style>
      .cls-1 {
        fill: #f4a637;
      }
    </style>
  </defs>
  <g id="Layer_1-2" data-name="Layer 1">
    <path class="cls-1" d="M34.83,39.53c-.8,0-1.61-.21-2.32-.65-.25-.15-.49-.33-.72-.54-.74-.68-1.2-1.55-1.38-2.47,0,0,0,0,0,0,0,0,0,0,0,0h0c-.03-.15-.05-.31-.06-.46h0c-.09-1.09.21-2.2.91-3.12,1.04-1.36,2.38-2.65,3.86-3.89.4-.34.79-.68,1.19-1-4.15-.34-8.24-1.04-12.27-1.84-6.83-.2-13.66-.28-19.53-.26h-.01C2.02,25.29,0,23.28,0,20.8c0-2.49,2-4.51,4.49-4.51.54,0,1.08,0,1.65,0,.66-1.26,1.91-2.17,3.39-2.37,4.17-.55,14.19-.7,23.71-.2-1.99-2.87-3.54-5.53-4.34-7.12-.2-.39-.35-.8-.43-1.22-.06-.33-.09-.66-.08-.99.02-.98.37-1.96,1.03-2.76.04-.05.09-.1.13-.15.76-.84,1.77-1.33,2.82-1.45h0s0,0,0,0c.27-.03.55-.04.83-.02h0c.54.04,1.07.17,1.57.4,5.89,2.61,17.93,14.51,19.29,15.87h0s.03.03.03.03c0,0,.02.02.03.03,0,0,.02.02.03.03,0,0,0,0,0,0l.03.03.06.06h0c1.83,1.92,1.59,4.48.29,6.07-.07.15-.15.3-.24.45-.18.28-.38.54-.6.77-.17.43-.41.87-.74,1.3-.76,1.01-1.69,1.97-2.72,2.91-3.09,3.38-7.09,6.72-12.7,10.7-.37.28-.79.49-1.22.64-.47.16-.95.24-1.43.24h-.03Z"/>
  </g>
</svg>