<?xml version="1.0" encoding="UTF-8"?>
<svg id="Layer_2" data-name="Layer 2" xmlns="http://www.w3.org/2000/svg" viewBox="0 0 52.96 52.96">
  <defs>
    <style>
      .cls-1 {
        fill: #f4a637;
      }

      .cls-2 {
        fill: none;
        stroke: #f4a637;
        stroke-miterlimit: 10;
        stroke-width: .75px;
      }
    </style>
  </defs>
  <g id="Layer_1-2" data-name="Layer 1">
    <g>
      <circle class="cls-2" cx="26.48" cy="26.48" r="26.11"/>
      <g>
        <path class="cls-1" d="M40.69,18.92v-2.42h-8.98v2.5h8.89s.09-.08.09-.09Z"/>
        <path class="cls-1" d="M23.99,25.69c-.11-.04-.49-.12-.51-.14-.09-.09.04-.1.07-.13,1.53-1.06,2.62-1.74,2.82-3.83.4-4.41-2.48-6.13-6.49-6.22h-10.99v22.08s.14.1.2.09c3.64-.14,7.4.18,11.03,0,3.72-.18,7.18-2,7.36-6.11.11-2.63-1.02-4.73-3.47-5.74ZM13.76,19.18h5.31c.18,0,.44.05.72.14.27.08.56.2.8.32.16.08.29.17.39.25.13.11.23.25.33.39.18.29.3.64.35,1,.03.18.03.37.03.55-.03.74-.32,1.47-.85,1.89-.13.1-.33.2-.54.3-.4.18-.87.33-1.16.33h-5.37v-5.17ZM22.48,31.62c-.06.25-.15.48-.27.7-.16.29-.35.55-.6.74,0,0,0,0,0,0h0c-.27.21-.89.47-1.37.59-.16.04-.3.06-.41.06h-6.05v-6.08h0s5.82,0,5.82,0c.56,0,1.63.41,2.07.77.32.26.55.61.71,1.02.04.09.05.19.08.29.04.15.08.3.1.45.07.48.04.98-.08,1.44Z"/>
        <path class="cls-1" d="M37.47,20.72c-6.61-.84-10.78,5.08-9.01,11.23,1.28,4.44,5.48,6.26,9.84,5.39,2.82-.57,4.7-2.46,5.45-5.2h-3.86c-.75,1.94-3.16,2.43-5,1.91-1.76-.5-2.37-2.15-2.38-3.84h11.53c.39-4.35-1.91-8.89-6.57-9.48ZM39.61,27.36h-7.1c.02-.37.09-.71.19-1.03.12-.4.31-.75.54-1.05.03-.04.05-.09.08-.12.16-.19.34-.35.54-.5.59-.44,1.33-.68,2.15-.7.27,0,.55,0,.84.05.23.03.43.08.63.15.38.14.71.34.97.59.67.63,1,1.57,1.16,2.61h0Z"/>
      </g>
    </g>
  </g>
</svg>