<?xml version="1.0" encoding="UTF-8"?>
<svg id="Layer_2" data-name="Layer 2" xmlns="http://www.w3.org/2000/svg" viewBox="0 0 52.96 52.96">
  <defs>
    <style>
      .cls-1 {
        fill: #f4a637;
      }

      .cls-2 {
        fill: none;
        stroke: #f4a637;
        stroke-miterlimit: 10;
        stroke-width: .75px;
      }
    </style>
  </defs>
  <g id="Layer_1-2" data-name="Layer 1">
    <g>
      <circle class="cls-2" cx="26.48" cy="26.48" r="26.11"/>
      <g id="HzLuqs">
        <g>
          <path class="cls-1" d="M21.59,11.84c2.99-.14,6.44-.16,9.43-.04,7.48.3,9.86,2.99,10.14,10.39.14,3.63.43,11.92-1.28,14.92-2.07,3.64-5.28,3.77-9,3.94-3.8.17-11.79.66-15.03-1.14-3.5-1.95-3.94-5.6-4.07-9.24-.1-2.72-.11-5.88,0-8.6.28-7.12,2.57-9.9,9.81-10.23ZM21.59,14.45c-4.08.2-6.66,1.09-7.07,5.63-.28,3.09-.24,6.95-.13,10.08.09,2.76.07,6.02,2.83,7.5,1.61.87,4.47.85,6.32.9,2.67.08,10.06.26,12.18-.9,2.71-1.48,2.56-3.99,2.69-6.64.17-3.45.32-7.4.01-10.83-.43-4.77-3.11-5.61-7.41-5.79-2.96-.12-6.46-.11-9.43.04Z"/>
          <path class="cls-1" d="M26.32,18.93c9.56-.23,10.2,14.18,1.08,15.03-10.67.99-11.22-14.79-1.08-15.03ZM26.42,21.56c-6.16.07-6.43,9.25-.52,9.78,7,.63,7.17-9.85.52-9.78Z"/>
          <path class="cls-1" d="M33.9,16.94c2.4-.44,2.89,3,.81,3.43-2.35.48-2.98-3.03-.81-3.43Z"/>
        </g>
      </g>
    </g>
  </g>
</svg>