<?xml version="1.0" encoding="UTF-8"?>
<svg id="Layer_2" data-name="Layer 2" xmlns="http://www.w3.org/2000/svg" viewBox="0 0 42.59 29.82">
  <defs>
    <style>
      .cls-1 {
        fill: #6d6964;
      }
    </style>
  </defs>
  <g id="Layer_2-2" data-name="Layer 2">
    <path class="cls-1" d="M37.25,0H5.35C2.4,0,0,2.4,0,5.35v18.51c0,3.29,2.68,5.96,5.96,5.96h30.67c3.29,0,5.96-2.68,5.96-5.96V5.35c0-2.95-2.4-5.35-5.35-5.35h0ZM40.2,23.86c0,1.97-1.6,3.57-3.57,3.57H5.97c-1.97,0-3.57-1.6-3.57-3.57v-.1h37.8v.1ZM40.2,21.36H2.4V5.35c0-1.63,1.33-2.95,2.95-2.95h31.89c1.63,0,2.95,1.33,2.95,2.95v16.01h.01Z"/>
  </g>
</svg>