<?xml version="1.0" encoding="UTF-8"?>
<svg id="Layer_2" data-name="Layer 2" xmlns="http://www.w3.org/2000/svg" viewBox="0 0 61 61">
  <defs>
    <style>
      .cls-1 {
        fill: #f4a637;
      }

      .cls-2 {
        fill: #fff;
      }
    </style>
  </defs>
  <g id="Layer_1-2" data-name="Layer 1">
    <g>
      <rect class="cls-1" y="0" width="61" height="61" rx="6.08" ry="6.08"/>
      <path class="cls-2" d="M46.45,15.59H14.55c-2.95,0-5.35,2.4-5.35,5.35v18.51c0,3.29,2.68,5.96,5.96,5.96h30.67c3.29,0,5.96-2.68,5.96-5.96v-18.51c0-2.95-2.4-5.35-5.35-5.35ZM49.4,39.45c0,1.97-1.6,3.57-3.57,3.57H15.17c-1.97,0-3.57-1.6-3.57-3.57v-.1h37.8v.1ZM49.4,36.95H11.6v-16.01c0-1.63,1.33-2.95,2.95-2.95h31.89c1.63,0,2.95,1.33,2.95,2.95v16.01ZM49.95,19.79c.12.36.2.74.2,1.15,0-.4-.08-.78-.2-1.15ZM51.05,37.7v1.75c0,.61-.11,1.19-.3,1.72.2-.54.3-1.12.3-1.72v-18.51c0-.32-.03-.63-.09-.93.06.3.09.61.09.93v16.76Z"/>
    </g>
  </g>
</svg>