<?xml version="1.0" encoding="UTF-8"?>
<svg id="Layer_2" data-name="Layer 2" xmlns="http://www.w3.org/2000/svg" viewBox="0 0 61 61">
  <defs>
    <style>
      .cls-1 {
        fill: #8496b2;
      }

      .cls-2 {
        fill: #eaeae5;
      }
    </style>
  </defs>
  <g id="Layer_1-2" data-name="Layer 1">
    <g>
      <rect class="cls-2" width="61" height="61" rx="6.18" ry="6.18"/>
      <path class="cls-1" d="M46.45,15.59H14.55c-2.95,0-5.35,2.4-5.35,5.35v18.51c0,3.29,2.68,5.96,5.96,5.96h30.67c3.29,0,5.96-2.68,5.96-5.96v-18.51c0-2.95-2.4-5.35-5.35-5.35ZM49.4,39.45c0,1.97-1.6,3.57-3.57,3.57H15.17c-1.97,0-3.57-1.6-3.57-3.57v-.1h37.8v.1ZM49.4,36.95H11.6v-16.01c0-1.63,1.33-2.95,2.95-2.95h31.89c1.63,0,2.95,1.33,2.95,2.95v16.01Z"/>
    </g>
  </g>
</svg>