<?xml version="1.0" encoding="UTF-8"?>
<svg id="Layer_2" data-name="Layer 2" xmlns="http://www.w3.org/2000/svg" viewBox="0 0 52.21 52.21">
  <defs>
    <style>
      .cls-1 {
        fill: #f4a637;
      }

      .cls-2 {
        fill: #fff;
      }
    </style>
  </defs>
  <g id="Layer_1-2" data-name="Layer 1">
    <g>
      <circle class="cls-1" cx="26.11" cy="26.11" r="26.11"/>
      <g id="hiMGJY">
        <g>
          <path class="cls-2" d="M38.41,37.86h-5.37v-9.59c0-.29-.56-1.53-.79-1.78-.75-.8-2.4-.77-3.28-.22-.37.23-1.3,1.37-1.3,1.75v9.84h-5.37v-15.89h5.37v1.96c.67-.68,1.18-1.34,2.07-1.78,3.92-1.91,8.68,1,8.68,5.38v10.33Z"/>
          <path class="cls-2" d="M19.47,21.98v15.89h-5.5c-.03-.09.12-.15.12-.18v-15.7h5.37Z"/>
          <path class="cls-2" d="M16.85,14.35c4.09,0,3.92,6.08-.6,5.54-3.41-.41-3.29-5.53.6-5.54Z"/>
        </g>
      </g>
    </g>
  </g>
</svg>