<?xml version="1.0" encoding="UTF-8"?>
<svg id="Layer_2" data-name="Layer 2" xmlns="http://www.w3.org/2000/svg" viewBox="0 0 52.21 52.21">
  <defs>
    <style>
      .cls-1 {
        fill: #f4a637;
      }

      .cls-2 {
        fill: #fff;
      }
    </style>
  </defs>
  <g id="Layer_1-2" data-name="Layer 1">
    <g>
      <circle class="cls-1" cx="26.11" cy="26.11" r="26.11"/>
      <g id="vStEDg">
        <path class="cls-2" d="M14.51,15.76l22.78-.03c1.41.18,2.5,1.3,2.62,2.72.42,4.88-.33,10.36,0,15.31-.11,1.29-.96,2.26-2.18,2.65l-22.93.07c-1.38-.18-2.44-1.24-2.61-2.62v-15.5c.17-1.31,1.07-2.25,2.33-2.6ZM36.41,17.69H15.67l10.03,9.12.75-.02,9.95-9.09ZM37.95,19.12c-.18-.04-.21.07-.31.15-3.33,2.55-6.38,6.24-9.71,8.88-.85.67-1.93.9-2.95.49-3.38-2.52-6.37-5.62-9.52-8.45-.3-.27-.73-.7-1.03-.92-.1-.08-.13-.2-.31-.15v14.53c0,.29.61.93.97.88h21.78c.4.1,1.07-.55,1.07-.88v-14.53Z"/>
      </g>
    </g>
  </g>
</svg>