<?xml version="1.0" encoding="UTF-8"?>
<svg id="Layer_2" data-name="Layer 2" xmlns="http://www.w3.org/2000/svg" viewBox="0 0 23.75 42.79">
  <defs>
    <style>
      .cls-1 {
        fill: #fff;
      }
    </style>
  </defs>
  <g id="Layer_2-2" data-name="Layer 2">
    <path class="cls-1" d="M18.19,0H5.55C2.49,0,0,2.49,0,5.55v31.05c0,3.41,2.78,6.19,6.19,6.19h11.37c3.41,0,6.19-2.78,6.19-6.19V5.55c0-3.06-2.49-5.55-5.55-5.55h-.01ZM18.19.75c.18,0,.36.01.53.03-.18-.02-.35-.03-.53-.03h0ZM18.19,2.43c1.72,0,3.11,1.4,3.11,3.11v28.47H2.43V5.55c0-1.72,1.4-3.11,3.11-3.11h12.65ZM5.5.75c-1.3.01-2.49.54-3.35,1.4.86-.86,2.04-1.39,3.35-1.4ZM1.68,5.55c0-2.13,1.73-3.86,3.86-3.86h0c-2.13,0-3.86,1.73-3.86,3.86v29.22h0V5.55ZM1.68,36.6v-.89h0v.89c0,2.17,1.55,3.99,3.6,4.41-2.05-.42-3.6-2.24-3.6-4.41ZM6.18,40.35c-2.07,0-3.75-1.68-3.75-3.75v-.14h18.87v.14c0,2.07-1.68,3.75-3.75,3.75H6.18ZM19.23,40.77c-.33.14-.68.23-1.05.28.36-.05.71-.15,1.05-.28.99-.41,1.8-1.16,2.29-2.11-.49.95-1.3,1.7-2.29,2.11Z"/>
  </g>
</svg>