<?xml version="1.0" encoding="UTF-8"?>
<svg id="Layer_2" data-name="Layer 2" xmlns="http://www.w3.org/2000/svg" viewBox="0 0 61 61">
  <defs>
    <style>
      .cls-1 {
        fill: #f4a637;
      }

      .cls-2 {
        fill: #fff;
      }
    </style>
  </defs>
  <g id="Layer_1-2" data-name="Layer 1">
    <g>
      <rect class="cls-1" y="0" width="61" height="61" rx="6.05" ry="6.05"/>
      <path class="cls-2" d="M37.93,9.11h-12.64c-3.06,0-5.55,2.49-5.55,5.55v31.05c0,3.41,2.78,6.19,6.19,6.19h11.37c3.41,0,6.19-2.78,6.19-6.19V14.66c0-3.06-2.49-5.55-5.55-5.55ZM37.93,9.86c.18,0,.36.01.53.03-.18-.02-.35-.03-.53-.03h0ZM37.93,11.54c1.72,0,3.11,1.4,3.11,3.11v28.47h-18.87V14.66c0-1.72,1.4-3.11,3.11-3.11h12.64ZM25.24,9.86c-1.3.01-2.49.54-3.35,1.4.86-.86,2.04-1.39,3.35-1.4ZM21.42,14.66c0-2.13,1.73-3.86,3.86-3.86h0c-2.13,0-3.86,1.73-3.86,3.86v29.22h0V14.66ZM21.42,45.71v-.89h0v.89c0,2.17,1.55,3.99,3.6,4.41-2.05-.42-3.6-2.24-3.6-4.41ZM25.92,49.46c-2.07,0-3.75-1.68-3.75-3.75v-.14h18.87v.14c0,2.07-1.68,3.75-3.75,3.75h-11.37ZM38.97,49.88c-.33.14-.68.23-1.05.28.36-.05.71-.15,1.05-.28.99-.41,1.8-1.16,2.29-2.11-.49.95-1.3,1.7-2.29,2.11Z"/>
    </g>
  </g>
</svg>