<?xml version="1.0" encoding="UTF-8"?>
<svg id="Layer_2" data-name="Layer 2" xmlns="http://www.w3.org/2000/svg" viewBox="0 0 61 61">
  <defs>
    <style>
      .cls-1 {
        fill: #8496b2;
      }

      .cls-2 {
        fill: #eaeae5;
      }
    </style>
  </defs>
  <g id="Layer_1-2" data-name="Layer 1">
    <g>
      <rect class="cls-2" width="61" height="61" rx="6.13" ry="6.13"/>
      <path class="cls-1" d="M37.93,9.11h-12.64c-3.06,0-5.55,2.49-5.55,5.55v31.05c0,3.41,2.78,6.19,6.19,6.19h11.37c3.41,0,6.19-2.78,6.19-6.19V14.66c0-3.06-2.49-5.55-5.55-5.55ZM25.28,9.86c-1.32,0-2.52.54-3.39,1.41.87-.87,2.07-1.41,3.39-1.41ZM25.92,50.21c-.59,0-1.16-.12-1.68-.33.52.21,1.09.33,1.68.33h0ZM41.04,45.71c0,2.07-1.68,3.75-3.75,3.75h-11.37c-2.07,0-3.75-1.68-3.75-3.75v-.14h18.87v.14ZM41.04,43.13h-18.87V14.66c0-1.72,1.4-3.11,3.11-3.11h12.64c1.72,0,3.11,1.4,3.11,3.11v28.47ZM37.93,9.86c1.32,0,2.52.54,3.39,1.41-.87-.87-2.07-1.41-3.39-1.41Z"/>
    </g>
  </g>
</svg>