<?xml version="1.0" encoding="UTF-8"?>
<svg id="Layer_2" data-name="Layer 2" xmlns="http://www.w3.org/2000/svg" viewBox="0 0 228.74 157.66">
  <defs>
    <style>
      .cls-1 {
        fill: #3a3a3a;
      }
    </style>
  </defs>
  <g id="Layer_1-2" data-name="Layer 1">
    <path class="cls-1" d="M203.12,0H25.62C11.49,0,0,11.49,0,25.62v103.02c0,16,13.02,29.02,29.02,29.02h170.7c16,0,29.02-13.02,29.02-29.02V25.62c0-14.12-11.49-25.62-25.62-25.62ZM223.74,128.64c0,13.25-10.78,24.02-24.02,24.02H29.02c-13.25,0-24.02-10.78-24.02-24.02v-4.74h218.74v4.74ZM5,118.9V25.62C5,14.25,14.25,5,25.62,5h177.51c11.37,0,20.62,9.25,20.62,20.62v93.28H5Z"/>
  </g>
</svg>